# xmcd CD database file
#
# Track frame offsets:
#	150
#	19390
#	37900
#	53767
#	76272
#	92690
#	113427
#	131020
#	146242
#	163412
#
# Disc length: 2436 seconds
#
# Revision: 0
# Processed by: cddbd v1.5.1PL0 Copyright (c) Steve Scherf et al.
# Submitted via: CDex 1.51
#
DISCID=8009820a
DTITLE=Sue Cream Sue - Suecrealisme
DYEAR=1986
DGENRE=JPop
TTITLE0=It's BAD
TTITLE1=銀のmatiere
TTITLE2=浮気なヴィーナス
TTITLE3=サンテ・グ・ジュペリの消息
TTITLE4=白い肌の女たち
TTITLE5=エキゾチック・ロマンス-恋は海の彼方から-
TTITLE6=新世界の予告
TTITLE7=甘い蜜
TTITLE8=ビー・マイ・ベイビー
TTITLE9=HORIZON
EXTD=YEAR: 1986
EXTT0=
EXTT1=
EXTT2=
EXTT3=
EXTT4=
EXTT5=
EXTT6=
EXTT7=
EXTT8=
EXTT9=
PLAYORDER=
